Coordinates
version=1
nRows=24
nColumns=38
inDegrees=no

Units are S.I. units (second, meters, Newtons, ...)
If the header above contains a line with 'inDegrees', this indicates whether rotational values are in degrees (yes) or radians (no).

endheader
time	pelvis_tilt	pelvis_list	pelvis_rotation	pelvis_tx	pelvis_ty	pelvis_tz	hip_flexion_r	hip_adduction_r	hip_rotation_r	knee_angle_r	ankle_angle_r	subtalar_angle_r	mtp_angle_r	hip_flexion_l	hip_adduction_l	hip_rotation_l	knee_angle_l	ankle_angle_l	subtalar_angle_l	mtp_angle_l	lumbar_extension	lumbar_bending	lumbar_rotation	arm_flex_r	arm_add_r	arm_rot_r	elbow_flex_r	pro_sup_r	wrist_flex_r	wrist_dev_r	arm_flex_l	arm_add_l	arm_rot_l	elbow_flex_l	pro_sup_l	wrist_flex_l	wrist_dev_l
21.14	-0.380092	1.46357	1.56395	0.741462	-0.643027	0.956692	0.0136443	-0.0882695	-0.116164	0.263054	0.258635	0	0	0.171675	0.00925037	-0.342028	0.134179	0.0714185	0	0	-0.140312	0.0310657	0.114433	0.569714	-0.235409	0.349635	1.56458	1.5708	0	0	0.494864	-0.20907	-0.0853935	1.4545	1.5708	0	0
21.15	-0.387098	1.45778	1.56781	0.74058	-0.641665	0.956274	0.0206181	-0.0919598	-0.120066	0.26633	0.261018	0	0	0.176421	0.0113784	-0.344831	0.13406	0.072872	0	0	-0.134334	0.0295746	0.116541	0.572991	-0.236881	0.346081	1.55993	1.5708	0	0	0.494692	-0.207322	-0.083192	1.45475	1.5708	0	0
21.16	-0.379177	1.4559	1.55726	0.739708	-0.640315	0.95622	0.0204876	-0.0927937	-0.119959	0.263262	0.258931	0	0	0.17689	0.0117007	-0.34677	0.133733	0.0744501	0	0	-0.133099	0.0298424	0.118261	0.577844	-0.238478	0.342678	1.55485	1.5708	0	0	0.495942	-0.205645	-0.0797617	1.45478	1.5708	0	0
21.17	-0.368608	1.45472	1.5445	0.738775	-0.638984	0.956218	0.0193974	-0.0932507	-0.120002	0.259538	0.256324	0	0	0.176682	0.0117697	-0.347807	0.133422	0.0759823	0	0	-0.1328	0.0304401	0.119491	0.583095	-0.240012	0.339054	1.54996	1.5708	0	0	0.497908	-0.204017	-0.0754111	1.45469	1.5708	0	0
21.18	-0.363941	1.45353	1.53643	0.7379	-0.637569	0.956177	0.0190837	-0.0944681	-0.118687	0.257157	0.254361	0	0	0.176036	0.0124247	-0.350484	0.13269	0.0776029	0	0	-0.132161	0.0302504	0.121785	0.588119	-0.241519	0.335599	1.5448	1.5708	0	0	0.500162	-0.202314	-0.0702843	1.45405	1.5708	0	0
21.19	-0.357907	1.45237	1.52717	0.736988	-0.636178	0.956126	0.0191809	-0.0955758	-0.117546	0.255679	0.252722	0	0	0.175599	0.0128896	-0.352691	0.132321	0.0794026	0	0	-0.131539	0.0301191	0.124002	0.592724	-0.243062	0.331321	1.54033	1.5708	0	0	0.503571	-0.200573	-0.0638849	1.45247	1.5708	0	0
21.2	-0.35078	1.45137	1.5174	0.735982	-0.634855	0.956089	0.0195138	-0.0965632	-0.116357	0.254992	0.251416	0	0	0.175277	0.0133838	-0.353877	0.132047	0.081018	0	0	-0.131316	0.0300656	0.125257	0.597902	-0.244202	0.327452	1.53552	1.5708	0	0	0.5061	-0.199178	-0.0590137	1.45207	1.5708	0	0
21.21	-0.343619	1.45044	1.50795	0.734908	-0.633585	0.956043	0.0203416	-0.0976065	-0.115557	0.255329	0.250071	0	0	0.175019	0.0140158	-0.354468	0.131798	0.0825436	0	0	-0.131255	0.0300494	0.125773	0.604101	-0.245493	0.325285	1.52953	1.5708	0	0	0.50783	-0.198021	-0.0553613	1.45248	1.5708	0	0
21.22	-0.338734	1.44969	1.50003	0.733873	-0.632258	0.955993	0.021595	-0.0990288	-0.114253	0.256741	0.24883	0	0	0.174157	0.0149294	-0.356318	0.13103	0.0840287	0	0	-0.131191	0.0297093	0.126966	0.610628	-0.247074	0.323243	1.52258	1.5708	0	0	0.508982	-0.196546	-0.0523391	1.45291	1.5708	0	0
21.23	-0.334828	1.44905	1.49344	0.732771	-0.630937	0.955943	0.0233706	-0.100754	-0.113421	0.259521	0.248063	0	0	0.173142	0.0160983	-0.358118	0.130085	0.0853932	0	0	-0.131236	0.0292246	0.127637	0.617678	-0.248467	0.320953	1.51485	1.5708	0	0	0.510088	-0.194643	-0.0502783	1.45337	1.5708	0	0
21.24	-0.332705	1.44848	1.48796	0.731686	-0.629556	0.955892	0.0256803	-0.102848	-0.111966	0.263313	0.247507	0	0	0.171707	0.0174893	-0.361136	0.128626	0.08694	0	0	-0.131104	0.0284778	0.12884	0.624848	-0.250057	0.31942	1.50699	1.5708	0	0	0.512244	-0.192548	-0.0474836	1.45317	1.5708	0	0
21.25	-0.331728	1.448	1.48388	0.730539	-0.628201	0.955817	0.0286871	-0.10505	-0.110094	0.268431	0.247072	0	0	0.170217	0.0191591	-0.36371	0.127014	0.0884838	0	0	-0.131095	0.0276517	0.129775	0.63271	-0.251361	0.318124	1.49822	1.5708	0	0	0.515497	-0.190392	-0.0438576	1.4522	1.5708	0	0
21.26	-0.329749	1.44747	1.47954	0.729291	-0.626902	0.955732	0.0324391	-0.107227	-0.108971	0.275021	0.246982	0	0	0.168995	0.0208136	-0.365442	0.125547	0.0899066	0	0	-0.13115	0.027104	0.129983	0.640877	-0.25279	0.316919	1.48891	1.5708	0	0	0.519402	-0.187925	-0.0403505	1.45053	1.5708	0	0
21.27	-0.325439	1.44665	1.47358	0.727979	-0.625621	0.955647	0.0367762	-0.109125	-0.108389	0.282467	0.246884	0	0	0.168254	0.0222217	-0.366055	0.124118	0.0909599	0	0	-0.13087	0.0268828	0.129674	0.648746	-0.254179	0.315397	1.47892	1.5708	0	0	0.522644	-0.18572	-0.0371368	1.44906	1.5708	0	0
21.28	-0.322841	1.44548	1.46885	0.726694	-0.624276	0.955547	0.0420413	-0.111342	-0.107522	0.290962	0.246618	0	0	0.167678	0.0237907	-0.367222	0.12246	0.0920055	0	0	-0.129883	0.0264625	0.129842	0.656558	-0.255303	0.314138	1.4676	1.5708	0	0	0.525165	-0.183928	-0.0336134	1.44766	1.5708	0	0
21.29	-0.319616	1.44416	1.46399	0.72536	-0.622934	0.955433	0.047648	-0.113504	-0.106761	0.299676	0.246271	0	0	0.167373	0.02534	-0.367796	0.120941	0.0930334	0	0	-0.128676	0.0261699	0.129684	0.664208	-0.256498	0.31319	1.45652	1.5708	0	0	0.527961	-0.182437	-0.0289327	1.44591	1.5708	0	0
21.3	-0.316097	1.44299	1.45833	0.724075	-0.621522	0.955324	0.0535602	-0.115687	-0.105447	0.309214	0.246121	0	0	0.166588	0.0268069	-0.369144	0.119092	0.094231	0	0	-0.127233	0.0260002	0.130227	0.671434	-0.257821	0.312851	1.44565	1.5708	0	0	0.53167	-0.18076	-0.0229808	1.44209	1.5708	0	0
21.31	-0.311404	1.44178	1.45199	0.722739	-0.620123	0.955195	0.060141	-0.117757	-0.104144	0.3202	0.245916	0	0	0.165918	0.0282684	-0.36943	0.117134	0.0953567	0	0	-0.125669	0.0260959	0.130614	0.678437	-0.25965	0.312823	1.43525	1.5708	0	0	0.535572	-0.178936	-0.0170547	1.43766	1.5708	0	0
21.32	-0.30623	1.44055	1.44565	0.721379	-0.618748	0.955094	0.0670476	-0.119748	-0.102718	0.331894	0.245445	0	0	0.16531	0.029767	-0.369124	0.115223	0.0964063	0	0	-0.124131	0.0262915	0.130694	0.685537	-0.261676	0.313266	1.42467	1.5708	0	0	0.53904	-0.177562	-0.0112031	1.43342	1.5708	0	0
21.33	-0.302113	1.43943	1.44081	0.719985	-0.617411	0.955042	0.0741158	-0.121835	-0.10102	0.343957	0.244454	0	0	0.164634	0.0314218	-0.368876	0.113424	0.097227	0	0	-0.122837	0.0262836	0.130542	0.692729	-0.263861	0.314178	1.4144	1.5708	0	0	0.542579	-0.176451	-0.0052912	1.42921	1.5708	0	0
21.34	-0.298782	1.43801	1.43716	0.718567	-0.616126	0.954948	0.0823178	-0.123845	-0.0984621	0.357514	0.243533	0	0	0.164472	0.0331087	-0.368424	0.111859	0.0981059	0	0	-0.121218	0.0261682	0.130113	0.700107	-0.266204	0.315689	1.40444	1.5708	0	0	0.546445	-0.175743	0.000798625	1.42485	1.5708	0	0
21.35	-0.296514	1.43631	1.43397	0.717218	-0.614807	0.954819	0.0916236	-0.125807	-0.0944586	0.372497	0.24249	0	0	0.164421	0.0349231	-0.36847	0.109734	0.0987593	0	0	-0.118949	0.0259365	0.130294	0.707723	-0.268459	0.317766	1.39364	1.5708	0	0	0.55062	-0.175309	0.00726205	1.41906	1.5708	0	0
21.36	-0.33425	1.42002	1.48119	0.714034	-0.61488	0.953938	0.121573	-0.13425	-0.0972363	0.396239	0.242264	0	0	0.183304	0.0381976	-0.400101	0.100582	0.0910083	0	0	-0.10356	0.0221407	0.119551	0.716739	-0.270551	0.31992	1.38163	1.5708	0	0	0.557327	-0.175112	0.014062	1.41188	1.5708	0	0
21.37	-0.296836	1.43227	1.43099	0.714695	-0.612153	0.954527	0.113461	-0.129496	-0.0821916	0.406617	0.239797	0	0	0.164413	0.0389373	-0.371391	0.104597	0.0997257	0	0	-0.11289	0.024753	0.131692	0.723879	-0.274281	0.327233	1.36934	1.5708	0	0	0.559894	-0.175856	0.021888	1.40548	1.5708	0	0
